<svg width="14" height="14" viewBox="0 0 14 14" fill="none" xmlns="http://www.w3.org/2000/svg">
<path d="M12.6354 5.18776C12.5602 4.96725 12.3613 4.8115 12.1291 4.79341L8.80354 4.52917L7.36446 1.34358C7.27054 1.13417 7.06229 1 6.83304 1C6.60379 1 6.39554 1.13417 6.30162 1.343L4.86254 4.52917L1.53696 4.79341C1.30887 4.8115 1.11229 4.96142 1.0347 5.17667C0.957119 5.39192 1.01196 5.63284 1.17587 5.79267L3.63345 8.18842L2.76429 11.9521C2.71062 12.1848 2.80454 12.4269 3.00112 12.5628C3.10146 12.6316 3.21695 12.6666 3.33304 12.6666C3.44562 12.6666 3.55879 12.634 3.65679 12.5686L6.83304 10.4512L10.0093 12.5686C10.2123 12.704 10.4789 12.6987 10.6772 12.5546C10.8744 12.4106 10.9613 12.158 10.8942 11.9235L9.82729 8.19017L12.4733 5.80901C12.6465 5.65267 12.7101 5.40884 12.6354 5.18776Z" fill="#FF4F17"/>
</svg>
